<mxfile host="app.diagrams.net" modified="2020-09-16T16:18:48.508Z" agent="5.0 (Macintosh; Intel Mac OS X 10_15_6) AppleWebKit/537.36 (KHTML, like Gecko) Chrome/85.0.4183.83 Safari/537.36" etag="1GL3Bpzo971TKomCPIIF" version="13.7.1" type="github">
  <diagram id="8_7a8NoPqFi72FyqRnLh" name="Page-1">
    <mxGraphModel dx="1351" dy="843" grid="1" gridSize="10" guides="1" tooltips="1" connect="1" arrows="1" fold="1" page="1" pageScale="1" pageWidth="850" pageHeight="1100" math="0" shadow="0">
      <root>
        <mxCell id="0" />
        <mxCell id="1" parent="0" />
        <mxCell id="VNQyIf2KibvP4hPLVo4k-33" style="edgeStyle=orthogonalEdgeStyle;rounded=0;orthogonalLoop=1;jettySize=auto;html=1;exitX=1;exitY=0.5;exitDx=0;exitDy=0;entryX=0;entryY=0.75;entryDx=0;entryDy=0;entryPerimeter=0;endArrow=none;endFill=0;" edge="1" parent="1" source="VNQyIf2KibvP4hPLVo4k-30" target="VNQyIf2KibvP4hPLVo4k-32">
          <mxGeometry relative="1" as="geometry" />
        </mxCell>
        <mxCell id="VNQyIf2KibvP4hPLVo4k-30" value="" style="verticalLabelPosition=bottom;shadow=0;dashed=0;align=center;html=1;verticalAlign=top;shape=mxgraph.electrical.logic_gates.buffer2;negating=1;rotation=90;" vertex="1" parent="1">
          <mxGeometry x="285" y="440" width="100" height="60" as="geometry" />
        </mxCell>
        <mxCell id="VNQyIf2KibvP4hPLVo4k-35" style="rounded=0;orthogonalLoop=1;jettySize=auto;html=1;exitX=1;exitY=0.5;exitDx=0;exitDy=0;exitPerimeter=0;endArrow=none;endFill=0;" edge="1" parent="1" source="VNQyIf2KibvP4hPLVo4k-31">
          <mxGeometry relative="1" as="geometry">
            <mxPoint x="470" y="676" as="targetPoint" />
          </mxGeometry>
        </mxCell>
        <mxCell id="VNQyIf2KibvP4hPLVo4k-39" value="A &amp;gt; B" style="edgeLabel;html=1;align=center;verticalAlign=middle;resizable=0;points=[];fontSize=11;" vertex="1" connectable="0" parent="VNQyIf2KibvP4hPLVo4k-35">
          <mxGeometry x="0.5667" relative="1" as="geometry">
            <mxPoint x="-0.08999999999999986" y="1" as="offset" />
          </mxGeometry>
        </mxCell>
        <mxCell id="VNQyIf2KibvP4hPLVo4k-48" style="edgeStyle=orthogonalEdgeStyle;rounded=0;orthogonalLoop=1;jettySize=auto;html=1;exitX=0;exitY=0.25;exitDx=0;exitDy=0;exitPerimeter=0;entryX=1;entryY=0.5;entryDx=0;entryDy=0;endArrow=none;endFill=0;fontSize=11;" edge="1" parent="1" source="VNQyIf2KibvP4hPLVo4k-31" target="VNQyIf2KibvP4hPLVo4k-43">
          <mxGeometry relative="1" as="geometry" />
        </mxCell>
        <mxCell id="VNQyIf2KibvP4hPLVo4k-61" style="edgeStyle=orthogonalEdgeStyle;rounded=0;orthogonalLoop=1;jettySize=auto;html=1;exitX=0;exitY=0.75;exitDx=0;exitDy=0;exitPerimeter=0;entryX=1;entryY=0.5;entryDx=0;entryDy=0;entryPerimeter=0;endArrow=none;endFill=0;fontSize=11;" edge="1" parent="1" source="VNQyIf2KibvP4hPLVo4k-31" target="VNQyIf2KibvP4hPLVo4k-46">
          <mxGeometry relative="1" as="geometry">
            <Array as="points">
              <mxPoint x="455" y="360" />
              <mxPoint x="565" y="360" />
            </Array>
          </mxGeometry>
        </mxCell>
        <mxCell id="VNQyIf2KibvP4hPLVo4k-31" value="" style="verticalLabelPosition=bottom;shadow=0;dashed=0;align=center;html=1;verticalAlign=top;shape=mxgraph.electrical.logic_gates.logic_gate;operation=and;rotation=90;" vertex="1" parent="1">
          <mxGeometry x="420" y="576" width="100" height="60" as="geometry" />
        </mxCell>
        <mxCell id="VNQyIf2KibvP4hPLVo4k-34" style="edgeStyle=orthogonalEdgeStyle;rounded=0;orthogonalLoop=1;jettySize=auto;html=1;exitX=1;exitY=0.5;exitDx=0;exitDy=0;exitPerimeter=0;endArrow=none;endFill=0;" edge="1" parent="1" source="VNQyIf2KibvP4hPLVo4k-32">
          <mxGeometry relative="1" as="geometry">
            <mxPoint x="350.2380952380952" y="676" as="targetPoint" />
          </mxGeometry>
        </mxCell>
        <mxCell id="VNQyIf2KibvP4hPLVo4k-36" value="A &amp;lt;= B" style="edgeLabel;html=1;align=center;verticalAlign=middle;resizable=0;points=[];" vertex="1" connectable="0" parent="VNQyIf2KibvP4hPLVo4k-34">
          <mxGeometry x="0.802" y="-2" relative="1" as="geometry">
            <mxPoint as="offset" />
          </mxGeometry>
        </mxCell>
        <mxCell id="VNQyIf2KibvP4hPLVo4k-47" style="edgeStyle=orthogonalEdgeStyle;rounded=0;orthogonalLoop=1;jettySize=auto;html=1;exitX=0;exitY=0.25;exitDx=0;exitDy=0;exitPerimeter=0;entryX=1;entryY=0.5;entryDx=0;entryDy=0;entryPerimeter=0;endArrow=none;endFill=0;fontSize=11;" edge="1" parent="1" source="VNQyIf2KibvP4hPLVo4k-32" target="VNQyIf2KibvP4hPLVo4k-46">
          <mxGeometry relative="1" as="geometry">
            <Array as="points">
              <mxPoint x="365" y="360" />
              <mxPoint x="565" y="360" />
            </Array>
          </mxGeometry>
        </mxCell>
        <mxCell id="VNQyIf2KibvP4hPLVo4k-32" value="" style="verticalLabelPosition=bottom;shadow=0;dashed=0;align=center;html=1;verticalAlign=top;shape=mxgraph.electrical.logic_gates.logic_gate;operation=or;rotation=90;" vertex="1" parent="1">
          <mxGeometry x="300" y="576" width="100" height="60" as="geometry" />
        </mxCell>
        <mxCell id="VNQyIf2KibvP4hPLVo4k-41" style="edgeStyle=orthogonalEdgeStyle;rounded=0;orthogonalLoop=1;jettySize=auto;html=1;exitX=1;exitY=0.5;exitDx=0;exitDy=0;endArrow=none;endFill=0;fontSize=11;" edge="1" parent="1" source="VNQyIf2KibvP4hPLVo4k-40">
          <mxGeometry relative="1" as="geometry">
            <mxPoint x="415.0689655172414" y="669.9999999999999" as="targetPoint" />
          </mxGeometry>
        </mxCell>
        <mxCell id="VNQyIf2KibvP4hPLVo4k-42" value="A &amp;lt; B" style="edgeLabel;html=1;align=center;verticalAlign=middle;resizable=0;points=[];fontSize=11;" vertex="1" connectable="0" parent="VNQyIf2KibvP4hPLVo4k-41">
          <mxGeometry x="0.9894" y="-1" relative="1" as="geometry">
            <mxPoint x="0.93" y="4.1" as="offset" />
          </mxGeometry>
        </mxCell>
        <mxCell id="VNQyIf2KibvP4hPLVo4k-57" style="edgeStyle=orthogonalEdgeStyle;rounded=0;orthogonalLoop=1;jettySize=auto;html=1;exitX=0;exitY=0.5;exitDx=0;exitDy=0;entryX=1;entryY=0.5;entryDx=0;entryDy=0;entryPerimeter=0;endArrow=none;endFill=0;fontSize=11;" edge="1" parent="1">
          <mxGeometry relative="1" as="geometry">
            <mxPoint x="415" y="422" as="sourcePoint" />
            <mxPoint x="300.00000000000006" y="341.99999999999994" as="targetPoint" />
            <Array as="points">
              <mxPoint x="415" y="402" />
              <mxPoint x="300" y="402" />
            </Array>
          </mxGeometry>
        </mxCell>
        <mxCell id="VNQyIf2KibvP4hPLVo4k-40" value="" style="verticalLabelPosition=bottom;shadow=0;dashed=0;align=center;html=1;verticalAlign=top;shape=mxgraph.electrical.logic_gates.buffer2;negating=1;rotation=90;" vertex="1" parent="1">
          <mxGeometry x="365" y="440" width="100" height="60" as="geometry" />
        </mxCell>
        <mxCell id="VNQyIf2KibvP4hPLVo4k-49" style="edgeStyle=orthogonalEdgeStyle;rounded=0;orthogonalLoop=1;jettySize=auto;html=1;exitX=0;exitY=0.5;exitDx=0;exitDy=0;entryX=1;entryY=0.5;entryDx=0;entryDy=0;entryPerimeter=0;endArrow=none;endFill=0;fontSize=11;" edge="1" parent="1" source="VNQyIf2KibvP4hPLVo4k-43" target="VNQyIf2KibvP4hPLVo4k-46">
          <mxGeometry relative="1" as="geometry">
            <Array as="points">
              <mxPoint x="485" y="360" />
              <mxPoint x="565" y="360" />
            </Array>
          </mxGeometry>
        </mxCell>
        <mxCell id="VNQyIf2KibvP4hPLVo4k-43" value="" style="verticalLabelPosition=bottom;shadow=0;dashed=0;align=center;html=1;verticalAlign=top;shape=mxgraph.electrical.logic_gates.buffer2;negating=1;rotation=90;" vertex="1" parent="1">
          <mxGeometry x="435" y="440" width="100" height="60" as="geometry" />
        </mxCell>
        <mxCell id="VNQyIf2KibvP4hPLVo4k-55" style="edgeStyle=orthogonalEdgeStyle;rounded=0;orthogonalLoop=1;jettySize=auto;html=1;exitX=1;exitY=0.5;exitDx=0;exitDy=0;exitPerimeter=0;entryX=0;entryY=0.5;entryDx=0;entryDy=0;endArrow=none;endFill=0;fontSize=11;" edge="1" parent="1">
          <mxGeometry relative="1" as="geometry">
            <mxPoint x="300" y="342" as="sourcePoint" />
            <mxPoint x="335" y="422.00000000000006" as="targetPoint" />
            <Array as="points">
              <mxPoint x="300" y="402" />
              <mxPoint x="335" y="402" />
            </Array>
          </mxGeometry>
        </mxCell>
        <mxCell id="VNQyIf2KibvP4hPLVo4k-62" style="edgeStyle=orthogonalEdgeStyle;rounded=0;orthogonalLoop=1;jettySize=auto;html=1;exitX=1;exitY=0.5;exitDx=0;exitDy=0;exitPerimeter=0;endArrow=none;endFill=0;fontSize=11;" edge="1" parent="1">
          <mxGeometry relative="1" as="geometry">
            <mxPoint x="530" y="680" as="targetPoint" />
            <mxPoint x="300" y="342" as="sourcePoint" />
            <Array as="points">
              <mxPoint x="300" y="402" />
              <mxPoint x="530" y="402" />
            </Array>
          </mxGeometry>
        </mxCell>
        <mxCell id="VNQyIf2KibvP4hPLVo4k-63" value="A &amp;gt;= B" style="edgeLabel;html=1;align=center;verticalAlign=middle;resizable=0;points=[];fontSize=11;" vertex="1" connectable="0" parent="VNQyIf2KibvP4hPLVo4k-62">
          <mxGeometry x="0.9742" relative="1" as="geometry">
            <mxPoint y="0.30000000000000426" as="offset" />
          </mxGeometry>
        </mxCell>
        <mxCell id="VNQyIf2KibvP4hPLVo4k-86" value="C" style="edgeLabel;html=1;align=center;verticalAlign=middle;resizable=0;points=[];fontSize=11;" vertex="1" connectable="0" parent="VNQyIf2KibvP4hPLVo4k-62">
          <mxGeometry x="-0.8712" y="2" relative="1" as="geometry">
            <mxPoint x="8" y="8.69" as="offset" />
          </mxGeometry>
        </mxCell>
        <mxCell id="VNQyIf2KibvP4hPLVo4k-70" style="edgeStyle=orthogonalEdgeStyle;rounded=0;orthogonalLoop=1;jettySize=auto;html=1;exitX=0;exitY=0.25;exitDx=0;exitDy=0;exitPerimeter=0;endArrow=none;endFill=0;fontSize=11;" edge="1" parent="1" source="VNQyIf2KibvP4hPLVo4k-44">
          <mxGeometry relative="1" as="geometry">
            <mxPoint x="420" y="170" as="targetPoint" />
            <Array as="points">
              <mxPoint x="315" y="210" />
              <mxPoint x="420" y="210" />
            </Array>
          </mxGeometry>
        </mxCell>
        <mxCell id="VNQyIf2KibvP4hPLVo4k-90" style="edgeStyle=orthogonalEdgeStyle;rounded=0;orthogonalLoop=1;jettySize=auto;html=1;endArrow=none;endFill=0;fontSize=11;" edge="1" parent="1" source="VNQyIf2KibvP4hPLVo4k-44">
          <mxGeometry relative="1" as="geometry">
            <mxPoint x="300" y="340.00000000000006" as="targetPoint" />
          </mxGeometry>
        </mxCell>
        <mxCell id="VNQyIf2KibvP4hPLVo4k-44" value="" style="verticalLabelPosition=bottom;shadow=0;dashed=0;align=center;html=1;verticalAlign=top;shape=mxgraph.electrical.logic_gates.logic_gate;operation=xor;fontSize=11;rotation=90;fillColor=#C7F2FF;" vertex="1" parent="1">
          <mxGeometry x="250" y="260" width="100" height="60" as="geometry" />
        </mxCell>
        <mxCell id="VNQyIf2KibvP4hPLVo4k-66" style="edgeStyle=none;rounded=0;orthogonalLoop=1;jettySize=auto;html=1;exitX=1;exitY=0.5;exitDx=0;exitDy=0;exitPerimeter=0;endArrow=none;endFill=0;fontSize=11;" edge="1" parent="1" source="VNQyIf2KibvP4hPLVo4k-46">
          <mxGeometry relative="1" as="geometry">
            <mxPoint x="565" y="680" as="targetPoint" />
          </mxGeometry>
        </mxCell>
        <mxCell id="VNQyIf2KibvP4hPLVo4k-67" value="A = B" style="edgeLabel;html=1;align=center;verticalAlign=middle;resizable=0;points=[];fontSize=11;" vertex="1" connectable="0" parent="VNQyIf2KibvP4hPLVo4k-66">
          <mxGeometry x="0.9829" relative="1" as="geometry">
            <mxPoint y="-4.210000000000001" as="offset" />
          </mxGeometry>
        </mxCell>
        <mxCell id="VNQyIf2KibvP4hPLVo4k-68" style="edgeStyle=orthogonalEdgeStyle;rounded=0;orthogonalLoop=1;jettySize=auto;html=1;exitX=0;exitY=0.75;exitDx=0;exitDy=0;exitPerimeter=0;endArrow=none;endFill=0;fontSize=11;" edge="1" parent="1" source="VNQyIf2KibvP4hPLVo4k-46">
          <mxGeometry relative="1" as="geometry">
            <mxPoint x="450" y="170" as="targetPoint" />
          </mxGeometry>
        </mxCell>
        <mxCell id="VNQyIf2KibvP4hPLVo4k-82" value="SUM" style="edgeLabel;html=1;align=center;verticalAlign=middle;resizable=0;points=[];fontSize=11;" vertex="1" connectable="0" parent="VNQyIf2KibvP4hPLVo4k-68">
          <mxGeometry x="0.0563" y="-1" relative="1" as="geometry">
            <mxPoint y="-9.03" as="offset" />
          </mxGeometry>
        </mxCell>
        <mxCell id="VNQyIf2KibvP4hPLVo4k-46" value="" style="verticalLabelPosition=bottom;shadow=0;dashed=0;align=center;html=1;verticalAlign=top;shape=mxgraph.electrical.logic_gates.logic_gate;operation=xor;negating=1;fontSize=11;rotation=90;numInputs=2;" vertex="1" parent="1">
          <mxGeometry x="515" y="270" width="100" height="60" as="geometry" />
        </mxCell>
        <mxCell id="VNQyIf2KibvP4hPLVo4k-53" style="rounded=0;orthogonalLoop=1;jettySize=auto;html=1;exitX=1;exitY=0.5;exitDx=0;exitDy=0;endArrow=none;endFill=0;fontSize=11;" edge="1" parent="1" source="VNQyIf2KibvP4hPLVo4k-52">
          <mxGeometry relative="1" as="geometry">
            <mxPoint x="614.7241379310344" y="669.9999999999999" as="targetPoint" />
          </mxGeometry>
        </mxCell>
        <mxCell id="VNQyIf2KibvP4hPLVo4k-54" value="A /= B" style="edgeLabel;html=1;align=center;verticalAlign=middle;resizable=0;points=[];fontSize=11;" vertex="1" connectable="0" parent="VNQyIf2KibvP4hPLVo4k-53">
          <mxGeometry x="0.8925" relative="1" as="geometry">
            <mxPoint x="0.28" y="10.83" as="offset" />
          </mxGeometry>
        </mxCell>
        <mxCell id="VNQyIf2KibvP4hPLVo4k-60" style="edgeStyle=orthogonalEdgeStyle;rounded=0;orthogonalLoop=1;jettySize=auto;html=1;exitX=0;exitY=0.5;exitDx=0;exitDy=0;entryX=1;entryY=0.5;entryDx=0;entryDy=0;entryPerimeter=0;endArrow=none;endFill=0;fontSize=11;" edge="1" parent="1" source="VNQyIf2KibvP4hPLVo4k-52" target="VNQyIf2KibvP4hPLVo4k-46">
          <mxGeometry relative="1" as="geometry">
            <Array as="points">
              <mxPoint x="615" y="360" />
              <mxPoint x="565" y="360" />
            </Array>
          </mxGeometry>
        </mxCell>
        <mxCell id="VNQyIf2KibvP4hPLVo4k-52" value="" style="verticalLabelPosition=bottom;shadow=0;dashed=0;align=center;html=1;verticalAlign=top;shape=mxgraph.electrical.logic_gates.buffer2;negating=1;rotation=90;" vertex="1" parent="1">
          <mxGeometry x="565" y="445" width="100" height="60" as="geometry" />
        </mxCell>
        <mxCell id="VNQyIf2KibvP4hPLVo4k-65" value="" style="group" vertex="1" connectable="0" parent="1">
          <mxGeometry x="350" y="90" width="193.17000000000002" height="80" as="geometry" />
        </mxCell>
        <mxCell id="VNQyIf2KibvP4hPLVo4k-1" value="" style="endArrow=none;html=1;" edge="1" parent="VNQyIf2KibvP4hPLVo4k-65">
          <mxGeometry width="50" height="50" relative="1" as="geometry">
            <mxPoint as="sourcePoint" />
            <mxPoint x="58.666666666666686" as="targetPoint" />
          </mxGeometry>
        </mxCell>
        <mxCell id="VNQyIf2KibvP4hPLVo4k-2" value="" style="endArrow=none;html=1;" edge="1" parent="VNQyIf2KibvP4hPLVo4k-65">
          <mxGeometry width="50" height="50" relative="1" as="geometry">
            <mxPoint x="117.33333333333337" as="sourcePoint" />
            <mxPoint x="176.0000000000001" as="targetPoint" />
          </mxGeometry>
        </mxCell>
        <mxCell id="VNQyIf2KibvP4hPLVo4k-3" value="" style="endArrow=none;html=1;" edge="1" parent="VNQyIf2KibvP4hPLVo4k-65">
          <mxGeometry width="50" height="50" relative="1" as="geometry">
            <mxPoint x="58.666666666666686" as="sourcePoint" />
            <mxPoint x="88.00000000000011" y="40" as="targetPoint" />
          </mxGeometry>
        </mxCell>
        <mxCell id="VNQyIf2KibvP4hPLVo4k-4" value="" style="endArrow=none;html=1;" edge="1" parent="VNQyIf2KibvP4hPLVo4k-65">
          <mxGeometry width="50" height="50" relative="1" as="geometry">
            <mxPoint x="88" y="40" as="sourcePoint" />
            <mxPoint x="117.33333333333337" as="targetPoint" />
          </mxGeometry>
        </mxCell>
        <mxCell id="VNQyIf2KibvP4hPLVo4k-5" value="" style="endArrow=none;html=1;" edge="1" parent="VNQyIf2KibvP4hPLVo4k-65">
          <mxGeometry width="50" height="50" relative="1" as="geometry">
            <mxPoint x="8.526512829121202e-14" as="sourcePoint" />
            <mxPoint x="58.666666666666686" y="80" as="targetPoint" />
          </mxGeometry>
        </mxCell>
        <mxCell id="VNQyIf2KibvP4hPLVo4k-6" value="" style="endArrow=none;html=1;" edge="1" parent="VNQyIf2KibvP4hPLVo4k-65">
          <mxGeometry width="50" height="50" relative="1" as="geometry">
            <mxPoint x="58.66666666666674" y="80" as="sourcePoint" />
            <mxPoint x="117.33333333333343" y="80" as="targetPoint" />
          </mxGeometry>
        </mxCell>
        <mxCell id="VNQyIf2KibvP4hPLVo4k-7" value="" style="endArrow=none;html=1;" edge="1" parent="VNQyIf2KibvP4hPLVo4k-65">
          <mxGeometry width="50" height="50" relative="1" as="geometry">
            <mxPoint x="117.33333333333337" y="80" as="sourcePoint" />
            <mxPoint x="176" as="targetPoint" />
          </mxGeometry>
        </mxCell>
        <mxCell id="VNQyIf2KibvP4hPLVo4k-8" value="&lt;br style=&quot;font-size: 10px&quot;&gt;&lt;font size=&quot;1&quot;&gt;+/-&lt;/font&gt;" style="text;html=1;align=center;verticalAlign=middle;resizable=0;points=[];autosize=1;" vertex="1" parent="VNQyIf2KibvP4hPLVo4k-65">
          <mxGeometry x="75" y="30" width="30" height="30" as="geometry" />
        </mxCell>
        <mxCell id="VNQyIf2KibvP4hPLVo4k-9" value="" style="endArrow=none;html=1;" edge="1" parent="VNQyIf2KibvP4hPLVo4k-65">
          <mxGeometry width="50" height="50" relative="1" as="geometry">
            <mxPoint x="146.66666666666669" y="39.80000000000001" as="sourcePoint" />
            <mxPoint x="190.66666666666669" y="40" as="targetPoint" />
          </mxGeometry>
        </mxCell>
        <mxCell id="VNQyIf2KibvP4hPLVo4k-10" value="&lt;font style=&quot;font-size: 10px&quot;&gt;ADD/SUB&lt;/font&gt;" style="edgeLabel;html=1;align=center;verticalAlign=middle;resizable=0;points=[];" vertex="1" connectable="0" parent="VNQyIf2KibvP4hPLVo4k-9">
          <mxGeometry x="0.4031" y="1" relative="1" as="geometry">
            <mxPoint x="17.380000000000003" y="-8.940000000000001" as="offset" />
          </mxGeometry>
        </mxCell>
        <mxCell id="VNQyIf2KibvP4hPLVo4k-13" value="" style="endArrow=none;html=1;" edge="1" parent="VNQyIf2KibvP4hPLVo4k-65">
          <mxGeometry width="50" height="50" relative="1" as="geometry">
            <mxPoint x="176" y="24" as="sourcePoint" />
            <mxPoint x="193.17000000000002" y="24" as="targetPoint" />
          </mxGeometry>
        </mxCell>
        <mxCell id="VNQyIf2KibvP4hPLVo4k-72" style="edgeStyle=orthogonalEdgeStyle;rounded=0;orthogonalLoop=1;jettySize=auto;html=1;exitX=1;exitY=0.5;exitDx=0;exitDy=0;exitPerimeter=0;entryX=0;entryY=0.75;entryDx=0;entryDy=0;entryPerimeter=0;endArrow=none;endFill=0;fontSize=11;" edge="1" parent="1" source="VNQyIf2KibvP4hPLVo4k-71" target="VNQyIf2KibvP4hPLVo4k-44">
          <mxGeometry relative="1" as="geometry" />
        </mxCell>
        <mxCell id="VNQyIf2KibvP4hPLVo4k-87" value="SING/UNSIGN" style="edgeLabel;html=1;align=center;verticalAlign=middle;resizable=0;points=[];fontSize=11;" vertex="1" connectable="0" parent="VNQyIf2KibvP4hPLVo4k-72">
          <mxGeometry x="-0.7611" y="-1" relative="1" as="geometry">
            <mxPoint x="-41" as="offset" />
          </mxGeometry>
        </mxCell>
        <mxCell id="VNQyIf2KibvP4hPLVo4k-73" style="edgeStyle=orthogonalEdgeStyle;rounded=0;orthogonalLoop=1;jettySize=auto;html=1;exitX=0;exitY=0.25;exitDx=0;exitDy=0;exitPerimeter=0;endArrow=none;endFill=0;fontSize=11;" edge="1" parent="1" source="VNQyIf2KibvP4hPLVo4k-71">
          <mxGeometry relative="1" as="geometry">
            <mxPoint x="380" y="90" as="targetPoint" />
            <Array as="points">
              <mxPoint x="300" y="60" />
              <mxPoint x="380" y="60" />
            </Array>
          </mxGeometry>
        </mxCell>
        <mxCell id="VNQyIf2KibvP4hPLVo4k-74" style="edgeStyle=orthogonalEdgeStyle;rounded=0;orthogonalLoop=1;jettySize=auto;html=1;exitX=0;exitY=0.75;exitDx=0;exitDy=0;exitPerimeter=0;endArrow=none;endFill=0;fontSize=11;" edge="1" parent="1" source="VNQyIf2KibvP4hPLVo4k-71">
          <mxGeometry relative="1" as="geometry">
            <mxPoint x="500" y="90" as="targetPoint" />
            <Array as="points">
              <mxPoint x="270" y="40" />
              <mxPoint x="490" y="40" />
              <mxPoint x="490" y="90" />
            </Array>
          </mxGeometry>
        </mxCell>
        <mxCell id="VNQyIf2KibvP4hPLVo4k-76" style="edgeStyle=orthogonalEdgeStyle;rounded=0;orthogonalLoop=1;jettySize=auto;html=1;exitX=0;exitY=0.25;exitDx=0;exitDy=0;exitPerimeter=0;endArrow=none;endFill=0;fontSize=11;" edge="1" parent="1" source="VNQyIf2KibvP4hPLVo4k-71">
          <mxGeometry relative="1" as="geometry">
            <mxPoint x="380" y="20" as="targetPoint" />
            <Array as="points">
              <mxPoint x="300" y="60" />
              <mxPoint x="380" y="60" />
            </Array>
          </mxGeometry>
        </mxCell>
        <mxCell id="VNQyIf2KibvP4hPLVo4k-77" style="edgeStyle=orthogonalEdgeStyle;rounded=0;orthogonalLoop=1;jettySize=auto;html=1;exitX=0;exitY=0.75;exitDx=0;exitDy=0;exitPerimeter=0;endArrow=none;endFill=0;fontSize=11;" edge="1" parent="1" source="VNQyIf2KibvP4hPLVo4k-71">
          <mxGeometry relative="1" as="geometry">
            <mxPoint x="490" y="20" as="targetPoint" />
            <Array as="points">
              <mxPoint x="270" y="40" />
              <mxPoint x="490" y="40" />
            </Array>
          </mxGeometry>
        </mxCell>
        <mxCell id="VNQyIf2KibvP4hPLVo4k-78" value="A (31)" style="edgeLabel;html=1;align=center;verticalAlign=middle;resizable=0;points=[];fontSize=11;" vertex="1" connectable="0" parent="VNQyIf2KibvP4hPLVo4k-77">
          <mxGeometry x="-0.7143" y="-33" relative="1" as="geometry">
            <mxPoint x="20" y="-43" as="offset" />
          </mxGeometry>
        </mxCell>
        <mxCell id="VNQyIf2KibvP4hPLVo4k-71" value="" style="verticalLabelPosition=bottom;shadow=0;dashed=0;align=center;html=1;verticalAlign=top;shape=mxgraph.electrical.logic_gates.logic_gate;operation=xor;fontSize=11;rotation=90;fillColor=#C7F2FF;" vertex="1" parent="1">
          <mxGeometry x="235" y="100" width="100" height="60" as="geometry" />
        </mxCell>
        <mxCell id="VNQyIf2KibvP4hPLVo4k-79" value="B (31)" style="edgeLabel;html=1;align=center;verticalAlign=middle;resizable=0;points=[];fontSize=11;" vertex="1" connectable="0" parent="1">
          <mxGeometry x="319.9999999999999" y="50" as="geometry" />
        </mxCell>
        <mxCell id="VNQyIf2KibvP4hPLVo4k-80" value="A&amp;nbsp;" style="edgeLabel;html=1;align=center;verticalAlign=middle;resizable=0;points=[];fontSize=11;" vertex="1" connectable="0" parent="1">
          <mxGeometry x="380.9999999999999" y="11" as="geometry" />
        </mxCell>
        <mxCell id="VNQyIf2KibvP4hPLVo4k-81" value="B" style="edgeLabel;html=1;align=center;verticalAlign=middle;resizable=0;points=[];fontSize=11;" vertex="1" connectable="0" parent="1">
          <mxGeometry x="489.9999999999999" y="11" as="geometry" />
        </mxCell>
        <mxCell id="VNQyIf2KibvP4hPLVo4k-83" value="Co" style="edgeLabel;html=1;align=center;verticalAlign=middle;resizable=0;points=[];fontSize=11;" vertex="1" connectable="0" parent="1">
          <mxGeometry x="370.0031034482761" y="200.00448275862072" as="geometry" />
        </mxCell>
        <mxCell id="VNQyIf2KibvP4hPLVo4k-84" value="Z" style="edgeLabel;html=1;align=center;verticalAlign=middle;resizable=0;points=[];fontSize=11;" vertex="1" connectable="0" parent="1">
          <mxGeometry x="550.0031034482761" y="350.0044827586207" as="geometry" />
        </mxCell>
        <mxCell id="VNQyIf2KibvP4hPLVo4k-89" value="" style="endArrow=none;html=1;fontSize=11;" edge="1" parent="1">
          <mxGeometry width="50" height="50" relative="1" as="geometry">
            <mxPoint x="239" y="180" as="sourcePoint" />
            <mxPoint x="279" y="180" as="targetPoint" />
          </mxGeometry>
        </mxCell>
      </root>
    </mxGraphModel>
  </diagram>
</mxfile>
